PathFileType	4	(X/Y/Z)	c:/Users/goper/Files/vsCode/490R/osim_files/C11/C11_RoM_01.trc
DataRate	CameraRate	NumFrames	NumMarkers	Units                	OrigDataRate	OrigDataStartFrame	OrigNumFrames
120.00	120.00	9	36	mm	120.0	1098	2195
                Frame#	Time	LPSI			LASI			LTH1			LTH2			LTH3			LTH4			LLFE			LMFE			LSH1			LSH2			LSH3			LSH4			LLMA			LMMA			LCAL			LMTP			LTOE			LMTP			RPSI			RASI			RTH1			RTH2			RTH3			RTH4			RLFE			RMFE			RSH1			RSH2			RSH3			RSH4			RLMA			RMMA			RCAL			RMTP			RTOE			RMTP		
		X1	Y1	Z1	X2	Y2	Z2	X3	Y3	Z3	X4	Y4	Z4	X5	Y5	Z5	X6	Y6	Z6	X7	Y7	Z7	X8	Y8	Z8	X9	Y9	Z9	X10	Y10	Z10	X11	Y11	Z11	X12	Y12	Z12	X13	Y13	Z13	X14	Y14	Z14	X15	Y15	Z15	X16	Y16	Z16	X17	Y17	Z17	X18	Y18	Z18	X19	Y19	Z19	X20	Y20	Z20	X21	Y21	Z21	X22	Y22	Z22	X23	Y23	Z23	X24	Y24	Z24	X25	Y25	Z25	X26	Y26	Z26	X27	Y27	Z27	X28	Y28	Z28	X29	Y29	Z29	X30	Y30	Z30	X31	Y31	Z31	X32	Y32	Z32	X33	Y33	Z33	X34	Y34	Z34	X35	Y35	Z35	X36	Y36	Z36

1098	9.14167	-278.58234	991.26605	415.38315	-114.80407	1000.63300	322.45490	-182.11552	621.87347	263.49014	-171.76282	575.42395	263.57309	-122.64931	629.78241	252.40173	-121.31315	582.97260	257.29755	-162.25223	497.76474	263.43774	-131.14856	496.49670	370.87738	-233.16344	410.76801	254.22446	-245.41360	367.91528	252.57918	-174.90594	389.98425	246.75342	-195.21080	349.64066	246.63519	-306.58170	101.73464	295.53677	-269.37814	113.28470	388.20212	-364.00342	68.03449	353.67624	-203.29988	39.18924	254.59213	-125.02682	51.99675	318.20401	-162.89606	44.12729	367.46729	-263.16544	1006.73169	497.94019	-88.78490	1002.46228	551.86157	-181.02077	620.44971	637.32629	-174.49811	576.69946	637.31964	-118.10316	621.50500	632.08734	-122.26719	578.60852	633.93256	-158.77841	508.93134	633.15405	-178.86766	476.51758	523.31403	-243.48488	418.21600	661.11310	-250.18616	372.83572	665.61572	-183.34738	401.59857	658.64270	-199.69537	357.28824	665.09894	-304.74673	102.07928	656.95905	-274.21539	104.83641	562.64337	-365.73209	62.20974	611.40259	-149.80173	48.52828	593.65607	-146.89487	61.54757	643.37372	-190.18584	39.00157	703.54077
1099	9.15000	-278.49271	991.29675	417.77310	-114.74993	1000.55389	324.76147	-182.48851	622.16138	265.42831	-172.17964	575.66278	265.42285	-123.01346	630.02313	254.32106	-121.63332	583.26361	259.16174	-162.53017	498.09799	265.06796	-130.96797	496.83563	372.47064	-233.44041	411.00284	255.48051	-245.62604	368.22516	253.56555	-175.11397	390.34848	248.00769	-195.35977	349.95193	247.71588	-306.60233	101.74747	295.67554	-269.42679	113.13692	388.38144	-364.01300	67.92438	353.75348	-203.15196	39.35601	254.51999	-124.97704	52.03528	318.20822	-162.85684	44.12881	367.48318	-263.30811	1007.16418	500.26691	-88.81946	1003.11444	554.10101	-181.48268	620.84833	639.34308	-175.16461	577.02930	639.07312	-118.57543	621.75549	633.65204	-122.88511	578.93311	635.35223	-159.72769	509.16080	634.61462	-180.24013	477.23645	524.65491	-244.42293	418.15509	662.41553	-251.03545	372.79089	666.68414	-184.29010	401.74008	659.73315	-200.44368	357.36804	666.03943	-304.75034	101.97600	657.12427	-274.31714	104.94300	562.86847	-365.74777	62.13910	611.46320	-149.79166	48.55850	593.69202	-146.86740	61.55285	643.42639	-190.37549	38.82890	703.52130
1100	9.15833	-278.61731	991.41003	420.16388	-114.69503	1000.51416	327.10236	-182.84648	622.45184	267.34506	-172.63731	576.01031	267.30945	-123.32874	630.26654	256.23532	-122.07280	583.40906	260.98154	-162.90405	498.36935	266.68896	-133.21910	495.62708	372.89893	-233.67505	411.28281	256.58600	-245.84573	368.44479	254.64986	-175.30257	390.65512	249.21681	-194.81323	350.48141	248.16577	-306.62411	101.74471	295.84818	-269.41785	112.99603	388.57718	-363.99164	67.81159	353.85077	-203.30565	39.22218	254.68445	-124.96653	52.05324	318.21777	-162.82288	44.17089	367.49918	-263.25934	1007.58173	502.50406	-88.95467	1003.69086	556.38525	-181.89494	621.18652	641.28149	-175.66252	577.35413	640.80365	-119.31172	621.98224	634.88000	-123.48109	579.23804	636.78357	-160.74892	509.45966	636.02472	-181.62927	477.86490	525.98071	-245.27620	418.11526	663.67279	-251.94884	372.73837	667.78485	-185.08823	401.91147	660.84991	-201.08026	357.46555	667.04901	-304.78757	101.88788	657.26624	-274.36011	105.03976	563.09253	-365.77075	62.12104	611.53577	-149.78102	48.57161	593.74994	-146.85767	61.54523	643.45367	-190.35469	38.77483	703.57684
1101	9.16667	-278.63431	991.58411	422.48727	-114.77297	1000.34656	329.41479	-183.20009	622.71808	269.29303	-173.02039	576.21564	269.17001	-123.71445	630.42169	258.14594	-122.39003	583.64636	262.78473	-163.28786	498.67499	268.23318	-133.81271	495.46985	374.45279	-233.91403	411.54449	257.93277	-246.09650	368.67874	255.73605	-175.60445	390.94205	250.46376	-195.08801	350.80338	249.39587	-306.64578	101.75063	296.00333	-269.46304	112.85763	388.75412	-364.03323	67.73978	353.94785	-203.30450	39.24204	254.75485	-124.94530	52.06800	318.26791	-162.80478	44.12810	367.52933	-263.61621	1007.98102	504.78506	-89.19817	1004.12756	558.73071	-182.42874	621.53955	643.22906	-176.28615	577.74121	642.58398	-119.85930	622.24890	636.43042	-124.20546	579.41022	638.27258	-161.74779	509.73358	637.50275	-182.95941	478.51010	527.36218	-246.23595	418.05743	664.87347	-252.69368	372.60721	668.90094	-186.05455	401.94424	661.92206	-201.88307	357.50143	668.01746	-304.72629	101.90196	657.49805	-274.37485	105.12194	563.33826	-365.85559	62.09940	611.64612	-149.77061	48.55486	593.80756	-146.87698	61.46109	643.53174	-190.17705	38.85069	703.73383
1102	9.17500	-278.83310	991.68976	424.82281	-114.79698	1000.27679	331.74158	-183.61339	622.97223	271.28186	-173.43652	576.47351	271.01495	-124.02831	630.66083	260.04193	-122.75481	583.85406	264.59781	-163.62753	498.95200	269.82956	-134.26894	495.50595	376.04721	-234.12869	411.81805	258.97018	-246.29297	368.89420	256.80054	-175.76285	391.28952	251.65189	-195.32936	350.99854	250.38699	-306.67215	101.73473	296.16962	-269.47739	112.70735	388.94629	-364.01736	67.63042	354.03299	-203.26759	39.26312	254.81558	-124.92442	52.05444	318.30887	-162.80763	44.07542	367.57028	-263.73911	1008.37329	507.08533	-89.53745	1004.58264	561.00677	-183.08026	621.83582	645.08435	-177.03720	578.01593	644.38135	-120.55498	622.45673	638.00049	-124.89273	579.66858	639.71521	-162.70416	509.98349	638.97943	-184.27913	479.13235	528.75812	-247.14864	418.01917	666.15320	-253.46855	372.53857	669.85547	-186.94856	402.05371	663.02844	-202.58923	357.52133	669.01019	-304.74927	101.78796	657.71918	-274.39993	105.19124	563.57025	-365.82544	62.05560	611.75848	-149.77039	48.52770	593.87354	-146.88249	61.37057	643.60199	-190.17415	38.76691	703.82825
1103	9.18333	-279.04355	991.94104	426.97202	-114.87269	1000.15002	334.01657	-183.98387	623.23260	273.13580	-173.80945	576.71808	272.79199	-124.42778	630.92035	261.93597	-123.14091	584.06195	266.37024	-164.14017	499.20837	271.42294	-134.78470	495.51019	377.61365	-234.12975	412.17679	260.10306	-246.55289	369.16095	257.89438	-176.10912	391.60089	252.87030	-195.58275	351.31622	251.48010	-306.70581	101.71237	296.28442	-269.52786	112.55972	389.17679	-364.01620	67.52693	354.10196	-203.27095	39.29148	254.86298	-124.92289	52.05376	318.34897	-162.81284	44.03047	367.60007	-264.17731	1008.80371	509.26300	-90.02178	1004.98499	563.23822	-183.92603	622.07971	646.86792	-177.88101	578.27893	646.05029	-121.27238	622.64441	639.50439	-125.70269	579.86420	641.12408	-163.68837	510.27783	640.33606	-185.66029	479.60233	530.18146	-248.03378	418.00253	667.41174	-254.18730	372.47537	670.98547	-187.85683	402.08853	664.16254	-203.31593	357.56628	670.04407	-304.79221	101.66997	657.95880	-274.42480	105.25407	563.78485	-365.85596	61.99554	611.93640	-149.78773	48.51073	593.90234	-146.88792	61.28471	643.67200	-190.15581	38.69872	703.92517
1104	9.19167	-279.26016	992.14966	429.10345	-115.05344	1000.06091	336.30511	-184.36746	623.53656	274.99234	-174.22940	576.97742	274.57312	-124.74313	631.18311	263.78308	-123.63709	584.31378	268.17352	-164.46472	499.52463	272.90726	-135.31804	495.48602	379.15903	-234.84549	412.26343	261.37881	-246.74446	369.43738	258.83322	-176.34013	391.93759	253.97263	-195.77931	351.64258	252.56537	-306.74146	101.73972	296.38733	-269.55515	112.43818	389.36032	-363.02530	67.05203	354.33304	-203.23068	39.34244	254.88757	-124.93339	52.07595	318.36237	-162.86996	44.00523	367.62433	-264.56226	1009.25964	511.35950	-90.58890	1005.32086	565.57220	-184.61874	622.40674	648.65320	-178.67102	578.61395	647.65601	-122.14963	622.86658	640.99701	-126.56512	580.07141	642.57190	-164.65390	510.53687	641.67444	-186.84355	480.30194	531.31390	-248.84019	417.91177	668.61249	-254.97603	372.41449	672.20099	-188.75372	402.08908	665.20105	-204.02365	357.58701	670.99255	-304.87469	101.48482	658.11749	-274.46695	105.39995	564.01990	-365.90912	61.99264	612.07367	-149.80165	48.51871	593.94080	-146.94987	61.20456	643.74463	-190.17352	38.66463	704.01270
1105	9.20000	-279.56750	992.37970	431.14127	-115.23047	999.95276	338.49319	-184.64804	623.82690	276.78329	-174.63507	577.25781	276.34665	-125.12990	631.42767	265.67084	-123.92985	584.57086	269.94016	-164.85196	499.94888	274.42273	-135.89682	495.57687	380.68649	-235.05969	412.56613	262.56787	-246.97963	369.70822	259.87357	-176.59514	392.27737	255.13045	-195.98506	352.01462	253.49318	-306.77173	101.79393	296.43204	-269.56076	112.37298	389.50021	-364.04742	67.41972	354.17273	-203.21915	39.40095	254.90466	-124.94119	52.10541	318.37662	-162.85196	44.05423	367.64709	-265.04575	1009.73248	513.51593	-91.18792	1005.78613	567.75146	-185.30220	622.72070	650.30670	-179.38283	578.93616	649.14514	-122.88121	623.06305	642.40381	-127.38725	580.31067	643.88776	-165.54691	510.80887	642.97101	-188.21600	480.77658	532.66284	-249.59319	417.78357	669.93878	-255.46573	372.34296	673.31281	-189.40797	402.20135	666.25952	-204.50629	357.60217	671.91400	-304.90649	101.41116	658.36566	-274.53687	105.51485	564.30182	-365.89175	61.96529	612.21307	-149.80917	48.57309	593.98059	-146.96751	61.16136	643.80280	-190.14658	38.66655	704.07874
1106	9.20833	-280.05746	992.72852	433.07571	-115.35622	999.93829	340.69958	-185.05338	624.14288	278.60999	-174.99823	577.56195	278.08340	-125.45557	631.62073	267.47363	-124.38280	584.73541	271.72284	-165.29613	500.21805	275.86105	-136.50446	495.57706	382.25909	-235.27853	412.89606	263.60416	-247.15016	370.05258	260.80930	-176.80428	392.63239	256.26224	-196.16989	352.33371	254.54608	-306.80261	101.84544	296.45694	-269.58884	112.29917	389.63708	-364.07852	67.39873	354.15454	-203.22153	39.45877	254.92168	-124.96212	52.13403	318.40729	-162.86128	44.09382	367.69098	-265.61441	1010.10400	515.40894	-91.93140	1006.15387	570.03705	-186.04276	622.92303	651.88733	-180.21422	579.10388	650.59570	-123.68309	623.26080	643.79907	-128.19185	580.48468	645.18341	-166.32635	511.03311	644.26471	-189.58911	481.34229	533.95667	-250.16904	417.70212	671.29144	-255.87393	372.19012	674.45923	-190.09651	402.15662	667.29114	-204.99065	357.55670	672.86536	-304.95377	101.28020	658.63568	-274.61618	105.63647	564.57294	-365.93878	61.94963	612.40082	-149.98961	48.46479	594.14960	-147.14955	60.90700	643.78021	-190.13506	38.67057	704.15656
